<svg width="20" height="20" viewBox="0 0 20 20" fill="none" xmlns="http://www.w3.org/2000/svg">
<path fill-rule="evenodd" clip-rule="evenodd" d="M10 19.375C14.8325 19.375 18.75 15.4575 18.75 10.625C18.75 5.79251 14.8325 1.875 10 1.875C5.16751 1.875 1.25 5.79251 1.25 10.625C1.25 12.1943 1.66313 13.6671 2.38654 14.9406L1.25 19.375L5.82179 18.3149C7.06337 18.9909 8.48681 19.375 10 19.375ZM10 18.0289C14.0891 18.0289 17.4039 14.7141 17.4039 10.625C17.4039 6.536 14.0891 3.22116 10 3.22116C5.91097 3.22116 2.59616 6.536 2.59616 10.625C2.59616 12.2038 3.09031 13.6672 3.9324 14.8689L3.26923 17.3557L5.79996 16.7231C6.99337 17.5466 8.44037 18.0289 10 18.0289Z" fill="#BFC8D0"/>
<path d="M17.5 10C17.5 14.1421 14.1421 17.5 10 17.5C8.42013 17.5 6.95431 17.0115 5.74541 16.1773L3.18182 16.8182L3.8536 14.299C3.00058 13.0817 2.5 11.5993 2.5 10C2.5 5.85786 5.85786 2.5 10 2.5C14.1421 2.5 17.5 5.85786 17.5 10Z" fill="url(#paint0_linear_5_15661)"/>
<path fill-rule="evenodd" clip-rule="evenodd" d="M10 18.75C14.8325 18.75 18.75 14.8325 18.75 10C18.75 5.16751 14.8325 1.25 10 1.25C5.16751 1.25 1.25 5.16751 1.25 10C1.25 11.5693 1.66313 13.0421 2.38654 14.3156L1.25 18.75L5.82179 17.6899C7.06337 18.3659 8.48681 18.75 10 18.75ZM10 17.4039C14.0891 17.4039 17.4039 14.0891 17.4039 10C17.4039 5.91097 14.0891 2.59616 10 2.59616C5.91097 2.59616 2.59616 5.91097 2.59616 10C2.59616 11.5788 3.09031 13.0422 3.9324 14.2439L3.26923 16.7307L5.79996 16.0981C6.99337 16.9216 8.44037 17.4039 10 17.4039Z" fill="white"/>
<path d="M7.8125 5.93743C7.6045 5.51957 7.28531 5.55656 6.96294 5.55656C6.38675 5.55656 5.48828 6.24674 5.48828 7.53125C5.48828 8.58394 5.95216 9.73625 7.51525 11.4601C9.02375 13.1237 11.0059 13.9842 12.6514 13.9549C14.2969 13.9257 14.6354 12.5096 14.6354 12.0314C14.6354 11.8195 14.5039 11.7137 14.4133 11.685C13.8526 11.4159 12.8183 10.9144 12.583 10.8203C12.3477 10.7261 12.2248 10.8535 12.1484 10.9228C11.9351 11.1261 11.5121 11.7255 11.3672 11.8603C11.2224 11.9951 11.0064 11.9269 10.9166 11.8759C10.5859 11.7432 9.68931 11.3444 8.97469 10.6516C8.09081 9.79487 8.03894 9.50006 7.87244 9.23769C7.73925 9.02775 7.837 8.899 7.88575 8.84269C8.07619 8.623 8.33912 8.28375 8.45706 8.11519C8.57494 7.94656 8.48137 7.69062 8.42519 7.53125C8.18362 6.84562 7.97894 6.27169 7.8125 5.93743Z" fill="white"/>
<defs>
<linearGradient id="paint0_linear_5_15661" x1="16.5625" y1="4.375" x2="2.5" y2="17.5" gradientUnits="userSpaceOnUse">
<stop stop-color="#5BD066"/>
<stop offset="1" stop-color="#27B43E"/>
</linearGradient>
</defs>
</svg>
